<svg width="196" height="155" viewBox="0 0 196 155" fill="none" xmlns="http://www.w3.org/2000/svg">
  <path opacity="0.3" d="M196 93.9077V40.0713C196 33.8176 189.188 29.947 183.818 33.1488L99 83.7218L14.1822 33.1488C8.81156 29.947 2 33.8176 2 40.0713L2 93.9077C2 96.7469 3.49347 99.376 5.93093 100.83L94.8731 153.863C97.4143 155.379 100.582 155.379 103.123 153.863L192.065 100.83C194.503 99.376 195.996 96.7469 195.996 93.9077H196Z" fill="url(#paint0_linear_4001_2)" fill-opacity="0.5"/>
  <path d="M-1.52588e-05 61.9077V8.0713C-1.52588e-05 1.81758 6.81157 -2.05305 12.1822 1.14877L97 51.7218L181.818 1.14877C187.188 -2.05305 194 1.81758 194 8.0713V61.9077C194 64.7469 192.507 67.376 190.069 68.8302L101.127 121.863C98.5857 123.379 95.4181 123.379 92.8769 121.863L3.93478 68.8302C1.49733 67.376 0.00384521 64.7469 0.00384521 61.9077H-1.52588e-05Z" fill="url(#paint1_linear_4001_2)" fill-opacity="0.5"/>
  <defs>
  <linearGradient id="paint0_linear_4001_2" x1="99" y1="229.399" x2="99" y2="32" gradientUnits="userSpaceOnUse">
  <stop stop-color="#F4C458"/>
  <stop offset="1" stop-color="#F4C458" stop-opacity="0"/>
  </linearGradient>
  <linearGradient id="paint1_linear_4001_2" x1="97" y1="197.399" x2="97" y2="0" gradientUnits="userSpaceOnUse">
  <stop stop-color="#F4C458"/>
  <stop offset="1" stop-color="#F4C458" stop-opacity="0"/>
  </linearGradient>
  </defs>
  </svg>
  