<svg width="20" height="17" viewBox="0 0 20 17" fill="none" xmlns="http://www.w3.org/2000/svg">
  <path d="M18.379 0.00125071C18.1685 0.0103346 17.9637 0.0679619 17.7789 0.140745C17.5961 0.213041 16.5434 0.655097 14.9888 1.30901C13.4342 1.96292 11.4133 2.81444 9.41012 3.65882C5.40368 5.34756 1.46666 7.00916 1.46666 7.00916L1.49535 6.99837C1.49535 6.99837 1.25773 7.07651 1.01682 7.24165C0.896365 7.32422 0.766773 7.43082 0.660665 7.58623C0.554557 7.74165 0.476985 7.9619 0.506218 8.19486C0.608898 9.01312 1.47088 9.24522 1.47088 9.24522L1.47425 9.24688L5.32108 10.5422C5.41916 10.8641 6.48783 14.3733 6.72291 15.1164C6.85274 15.5273 6.97426 15.7643 7.10101 15.926C7.16444 16.0069 7.23091 16.0695 7.30441 16.1153C7.33361 16.1335 7.36433 16.1471 7.39472 16.1593H7.3964C7.40014 16.1609 7.40365 16.1611 7.40738 16.1626L7.39725 16.1601C7.40431 16.1629 7.41128 16.1677 7.41835 16.1701C7.43206 16.1748 7.44046 16.1747 7.45801 16.1784C7.89857 16.3297 8.26316 16.0489 8.26316 16.0489L8.27835 16.0372L10.6415 13.8809L14.4765 16.8227L14.5246 16.8443C15.1959 17.1375 15.8029 16.9739 16.1391 16.7048C16.4753 16.4357 16.6075 16.0887 16.6075 16.0887L16.6219 16.0522L19.4399 1.60211C19.512 1.27883 19.5222 0.999389 19.4542 0.746879C19.3862 0.494369 19.221 0.274864 19.0137 0.153199C18.8064 0.0315348 18.5895 -0.00783318 18.379 0.00125071ZM18.4018 0.865615C18.4873 0.861721 18.5506 0.871334 18.5706 0.883052C18.5906 0.89477 18.5995 0.893228 18.6187 0.964423C18.6379 1.03562 18.6483 1.18558 18.5959 1.42027L18.5942 1.42525L15.7922 15.7915C15.7856 15.8059 15.7272 15.9388 15.5939 16.0455C15.4579 16.1544 15.3066 16.2394 14.9052 16.0738L10.7115 12.8563L10.5934 12.7649L10.5908 12.7674L9.33669 11.8416L16.3847 3.68373C16.4389 3.6212 16.4734 3.54458 16.4843 3.46313C16.4951 3.38168 16.4817 3.29889 16.4458 3.22476C16.4098 3.15063 16.3527 3.08834 16.2816 3.04543C16.2104 3.00251 16.128 2.98081 16.0446 2.98293C15.963 2.98502 15.8837 3.00978 15.8159 3.05434L5.61731 9.74341L1.76458 8.44562C1.76458 8.44562 1.38201 8.23617 1.36369 8.09024C1.36268 8.08215 1.35816 8.08947 1.37804 8.06035C1.39792 8.03123 1.44789 7.98207 1.51054 7.93912C1.63585 7.85323 1.77893 7.80129 1.77893 7.80129L1.79328 7.79631L1.80762 7.79049C1.80762 7.79049 5.74485 6.1288 9.75109 4.44015C11.7542 3.59582 13.7747 2.74492 15.3289 2.09117C16.8827 1.43759 18.0054 0.967149 18.1005 0.92955C18.2087 0.886911 18.3163 0.869509 18.4018 0.865615ZM13.7279 5.44567L8.38301 11.6324L8.38048 11.6349C8.37213 11.6448 8.36424 11.655 8.35684 11.6656C8.34836 11.6771 8.34048 11.689 8.33321 11.7013C8.30318 11.7514 8.28394 11.8071 8.27667 11.8649C8.27666 11.866 8.27666 11.8671 8.27667 11.8682L7.58039 14.9487C7.56881 14.9154 7.56071 14.9032 7.54832 14.864V14.8632C7.32717 14.1641 6.3189 10.8546 6.1794 10.3969L13.7279 5.44567ZM8.98645 12.6462L9.94689 13.3553L8.53577 14.6423L8.98645 12.6462Z" fill="white"/>
  </svg>
  